<?xml version="1.0" encoding="UTF-8"?>
<svg xmlns="http://www.w3.org/2000/svg" xmlns:xlink="http://www.w3.org/1999/xlink" width="375pt" height="374.999991pt" viewBox="0 0 375 374.999991" version="1.2">
<defs>
<clipPath id="clip1">
  <path d="M 15.558594 29.960938 L 359.808594 29.960938 L 359.808594 344.960938 L 15.558594 344.960938 Z M 15.558594 29.960938 "/>
</clipPath>
</defs>
<g id="surface1">
<g clip-path="url(#clip1)" clip-rule="nonzero">
<path style=" stroke:none;fill-rule:nonzero;fill:rgb(100%,100%,100%);fill-opacity:1;" d="M 333.265625 29.738281 C 328.605469 29.941406 324.265625 31.296875 320.441406 32.839844 C 316.863281 34.277344 303.179688 40.140625 281.632812 49.367188 C 260.0625 58.605469 231.507812 70.851562 201.042969 83.933594 C 140.113281 110.097656 71.617188 139.554688 36.53125 154.628906 C 35.210938 155.195312 30.609375 156.664062 25.722656 160.472656 C 20.835938 164.28125 15.640625 172.175781 15.640625 180.972656 C 15.640625 188.066406 19.027344 195.109375 23.285156 199.316406 C 27.546875 203.523438 32.054688 205.601562 35.914062 207.175781 C 49.925781 212.882812 93.375 230.640625 101.578125 233.996094 C 104.464844 242.828125 120.195312 290.875 123.839844 302.648438 C 126.246094 310.417969 128.535156 315.285156 131.511719 319.148438 C 133.003906 321.078125 134.734375 322.773438 136.832031 324.097656 C 137.671875 324.628906 138.59375 325.035156 139.523438 325.414062 L 139.578125 325.441406 C 139.792969 325.527344 139.976562 325.671875 140.195312 325.746094 C 140.605469 325.890625 140.878906 325.910156 141.425781 326.027344 C 143.609375 326.730469 145.816406 327.175781 147.78125 327.175781 C 156.171875 327.175781 161.308594 322.558594 161.308594 322.558594 L 161.617188 322.335938 L 204.765625 285.058594 L 257.101562 334.5 C 257.839844 335.542969 264.710938 344.960938 279.867188 344.960938 C 288.867188 344.960938 296.003906 340.449219 300.589844 335.648438 C 305.171875 330.84375 308.027344 325.800781 309.242188 319.457031 L 309.242188 319.429688 C 310.375 313.433594 358.609375 66.148438 358.609375 66.148438 L 358.523438 66.484375 C 359.9375 60.046875 360.308594 54.050781 358.75 48.136719 C 357.191406 42.222656 353.085938 36.558594 347.996094 33.511719 C 342.90625 30.464844 337.925781 29.53125 333.265625 29.738281 Z M 330.578125 59.660156 C 330.511719 60.078125 330.628906 59.867188 330.523438 60.359375 L 330.46875 60.695312 C 330.46875 60.695312 282.832031 304.816406 281.070312 314.113281 C 281.199219 313.414062 280.613281 314.808594 280.007812 315.652344 C 279.152344 315.066406 277.402344 314.308594 277.402344 314.308594 L 277.125 314.003906 L 205.632812 246.464844 L 155.089844 290.09375 L 170.128906 229.96875 C 170.128906 229.96875 264.125 132.792969 269.785156 127.140625 C 274.347656 122.613281 275.304688 121.039062 275.304688 119.476562 C 275.304688 117.386719 274.210938 115.871094 271.773438 115.871094 C 269.582031 115.871094 266.632812 118 265.054688 119 C 244.507812 132.082031 154.304688 184.585938 113.871094 208.070312 C 107.445312 205.445312 62.804688 187.195312 47.675781 181.027344 C 47.789062 180.976562 47.753906 180.996094 47.871094 180.945312 C 82.964844 165.863281 151.4375 136.410156 212.355469 110.25 C 242.8125 97.167969 271.394531 84.914062 292.945312 75.683594 C 314.164062 66.597656 328.90625 60.339844 330.578125 59.660156 Z M 330.578125 59.660156 "/>
</g>
</g>
</svg>
