<?xml version="1.0" encoding="UTF-8"?><svg id="a" xmlns="http://www.w3.org/2000/svg" viewBox="0 0 34 34"><defs><style>.b{fill:#fff;}</style></defs><g><circle cx="17.1" cy="17.54" r="15.5"/><path d="M17.1,2.54c8.27,0,15,6.73,15,15s-6.73,15-15,15S2.1,25.82,2.1,17.54,8.83,2.54,17.1,2.54m0-1C8.27,1.54,1.1,8.71,1.1,17.54s7.16,16,16,16,16-7.16,16-16S25.94,1.54,17.1,1.54h0Z"/></g><path class="b" d="M18.46,11.7h-3.31c-1.62,0-2.94,1.32-2.94,2.94,0,.54,.44,.95,.98,.95s.98-.44,.98-.95c0-.54,.44-.98,.98-.98h3.31c.87,0,1.58,.71,1.58,1.58,0,.6-.34,1.15-.93,1.45l-2.99,1.75c-.33,.18-.48,.5-.48,.84v1.22c0,.54,.44,.98,.98,.98s.98-.44,.98-.98v-.66l2.45-1.44c1.21-.6,1.96-1.82,1.96-3.17,0-1.95-1.59-3.54-3.54-3.54Zm-1.85,11.26c-.68,0-1.22,.55-1.22,1.22s.55,1.2,1.22,1.2,1.22-.55,1.22-1.2-.55-1.22-1.22-1.22Z"/></svg>